<svg width="30" height="30" viewBox="0 0 30 30" fill="none" xmlns="http://www.w3.org/2000/svg">
<path d="M7.91016 8.74336V10.3271C7.91016 10.5698 8.10691 10.7666 8.34961 10.7666C8.5923 10.7666 8.78906 10.5698 8.78906 10.3271V8.74336C9.05133 8.59113 9.22852 8.30783 9.22852 7.9834C9.22852 7.49877 8.83424 7.10449 8.34961 7.10449C7.86498 7.10449 7.4707 7.49877 7.4707 7.9834C7.4707 8.30789 7.64789 8.59113 7.91016 8.74336Z" fill="#DFD399"/>
<path d="M27.5098 8.90625H13.7695V5.83008C13.7695 5.20008 13.257 4.6875 12.627 4.6875H11.1328V2.49023C11.1328 1.11709 10.0157 0 8.64258 0H8.05664C6.6835 0 5.56641 1.11709 5.56641 2.49023V4.6875H4.07227C3.44227 4.6875 2.92969 5.20008 2.92969 5.83008V8.90625H2.49023C1.11709 8.90625 0 10.0233 0 11.3965V27.5098C0 28.8829 1.11709 30 2.49023 30H27.5098C28.8829 30 30 28.8829 30 27.5098V11.3965C30 10.0233 28.8829 8.90625 27.5098 8.90625ZM13.7695 9.78516H27.5098C28.3488 9.78516 29.0398 10.4299 29.1141 11.25H13.7695V9.78516ZM6.44531 2.49023C6.44531 1.60172 7.16813 0.878906 8.05664 0.878906H8.64258C9.53109 0.878906 10.2539 1.60172 10.2539 2.49023V4.6875H6.44531V2.49023ZM3.80859 5.83008C3.80859 5.68717 3.92936 5.56641 4.07227 5.56641H12.627C12.7699 5.56641 12.8906 5.68717 12.8906 5.83008V12.041C12.8906 12.1839 12.7699 12.3047 12.627 12.3047H4.07227C3.92936 12.3047 3.80859 12.1839 3.80859 12.041V5.83008ZM2.49023 9.78516H2.92969V11.25H0.885879C0.960176 10.4299 1.65117 9.78516 2.49023 9.78516ZM29.1211 27.5098C29.1211 28.3983 28.3983 29.1211 27.5098 29.1211H2.49023C1.60172 29.1211 0.878906 28.3983 0.878906 27.5098V15.6445H29.1211V27.5098ZM29.1211 14.7656H0.878906V12.1289H2.93414C2.97932 12.7179 3.47191 13.1836 4.07227 13.1836H12.627C13.2273 13.1836 13.7199 12.7179 13.7651 12.1289H29.1211V14.7656Z" fill="#DFD399"/>
<path d="M3.95508 24.7266H9.22852C9.47121 24.7266 9.66797 24.5299 9.66797 24.2871C9.66797 24.0444 9.47121 23.8477 9.22852 23.8477H3.95508C3.71238 23.8477 3.51562 24.0444 3.51562 24.2871C3.51562 24.5299 3.71238 24.7266 3.95508 24.7266Z" fill="#DFD399"/>
<path d="M3.95508 26.4844H21.5332C21.7759 26.4844 21.9727 26.2877 21.9727 26.0449C21.9727 25.8022 21.7759 25.6055 21.5332 25.6055H3.95508C3.71238 25.6055 3.51562 25.8022 3.51562 26.0449C3.51562 26.2877 3.71238 26.4844 3.95508 26.4844Z" fill="#DFD399"/>
<path d="M19.0137 22.6758H26.0449C26.2876 22.6758 26.4844 22.4791 26.4844 22.2363V18.7207C26.4844 18.4779 26.2876 18.2812 26.0449 18.2812H19.0137C18.771 18.2812 18.5742 18.4779 18.5742 18.7207V22.2363C18.5742 22.4791 18.771 22.6758 19.0137 22.6758ZM19.4531 19.1602H25.6055V21.7969H19.4531V19.1602Z" fill="#DFD399"/>
</svg>
