<svg width="35" height="30" viewBox="0 0 35 30" fill="none" xmlns="http://www.w3.org/2000/svg">
<path d="M28.4293 8.66652H25.9258V5.99932C25.9258 4.47088 25.3507 3.01486 24.3065 1.89962C24.1124 1.69225 23.7869 1.68162 23.5797 1.87575C23.3724 2.06989 23.3617 2.39528 23.5558 2.60252C24.4209 3.52651 24.8974 4.73286 24.8974 5.99932V8.66652H14.4335C11.1255 8.66652 8.4342 11.3579 8.4342 14.6659V16.5056H7.62876C7.30834 16.5056 7.00703 16.6304 6.78035 16.857L4.05108 19.5862V16.8407C4.05108 16.4201 3.82588 16.0248 3.46323 15.8092C1.96142 14.9163 1.02842 13.2784 1.02842 11.5347V5.99932C1.02842 3.25834 3.25834 1.02842 5.99932 1.02842H19.9265C20.5689 1.02842 21.1938 1.14899 21.7838 1.38689C22.0472 1.49294 22.3468 1.36558 22.453 1.10225C22.5592 0.838861 22.4318 0.539224 22.1684 0.433047C21.4557 0.145649 20.7013 0 19.9265 0H5.99932C2.69128 0 0 2.69128 0 5.99932V11.5347C0 13.6393 1.12565 15.6159 2.93766 16.6932C2.99011 16.7244 3.02266 16.7809 3.02266 16.8408V19.8346C3.02266 20.2103 3.24691 20.5459 3.59402 20.6897C3.82568 20.8011 4.29867 20.785 4.60274 20.4891L7.50752 17.5843C7.53993 17.5519 7.58297 17.534 7.62876 17.534H8.4342V20.2012C8.4342 21.011 8.59289 21.7967 8.90584 22.5367C9.01646 22.7982 9.31818 22.9204 9.57976 22.81C9.84133 22.6993 9.96365 22.3976 9.8531 22.136C9.59408 21.5236 9.46269 20.8727 9.46269 20.2013V14.666C9.46269 11.9249 11.6926 9.69501 14.4336 9.69501H28.4293C31.1703 9.69501 33.4002 11.9249 33.4002 14.666V20.2013C33.4002 21.9518 32.5051 23.5406 31.0058 24.4515C30.6524 24.6662 30.4329 25.058 30.4329 25.474V28.8278L27.1287 25.5236C26.902 25.2969 26.6007 25.1721 26.2802 25.1721H14.4335C13.1861 25.1721 11.9933 24.7082 11.0746 23.8657C10.8654 23.6739 10.5401 23.6879 10.3481 23.8971C10.1561 24.1065 10.1702 24.4317 10.3795 24.6237C11.4883 25.6406 12.9279 26.2006 14.4334 26.2006H26.2801C26.3252 26.2006 26.3694 26.2189 26.4013 26.2509L29.8811 29.7306C30.1498 29.9371 30.4124 30.0968 30.8897 29.9312C31.2368 29.7874 31.4611 29.4518 31.4611 29.0761V25.4739C31.4611 25.4148 31.4912 25.3598 31.5396 25.3304C33.3487 24.2314 34.4286 22.314 34.4286 20.2012V14.6659C34.4286 11.3579 31.7373 8.66652 28.4293 8.66652Z" fill="#DFD399"/>
<path d="M19.98 20.9297C19.6785 20.5037 19.1292 20.218 18.5027 20.218C17.5527 20.218 16.78 20.8747 16.78 21.6818C16.78 22.4888 17.5528 23.1455 18.5027 23.1455C19.3362 23.1455 20.0332 22.6399 20.1916 21.9707C20.9501 21.6512 21.5472 21.0146 21.8063 20.2092C22.5573 20.0382 23.1197 19.3655 23.1197 18.5634V16.7092C23.1197 15.9349 22.5956 15.2812 21.8836 15.0829C21.716 14.0501 21.2085 13.1025 20.4304 12.3863C19.5622 11.5871 18.4339 11.147 17.2532 11.147C14.9299 11.147 12.9866 12.8205 12.6224 15.083C11.9107 15.2814 11.3868 15.935 11.3868 16.7091V18.5634C11.3868 19.4943 12.1441 20.2517 13.0751 20.2517C14.006 20.2517 14.7633 19.4943 14.7633 18.5634V16.7091C14.7633 15.9832 14.3028 15.3629 13.6586 15.1249C13.992 13.4213 15.4812 12.1754 17.2532 12.1754C19.0028 12.1754 20.5108 13.4431 20.8465 15.1254C20.203 15.3638 19.7431 15.9837 19.7431 16.7091V18.5634C19.7431 19.2495 20.1548 19.841 20.744 20.1048C20.5805 20.4561 20.3116 20.743 19.98 20.9297ZM18.5027 22.1171C18.0935 22.1171 17.8084 21.8878 17.8084 21.6819C17.8084 21.476 18.0935 21.2465 18.5027 21.2465C18.9118 21.2465 19.197 21.476 19.197 21.6819C19.197 21.8878 18.9118 22.1171 18.5027 22.1171ZM13.7349 18.5635C13.7349 18.9274 13.4389 19.2234 13.0751 19.2234C12.7112 19.2234 12.4152 18.9274 12.4152 18.5635V16.7093C12.4152 16.3454 12.7112 16.0494 13.0751 16.0494C13.4389 16.0494 13.7349 16.3454 13.7349 16.7093V18.5635ZM20.7715 16.7093C20.7715 16.3454 21.0675 16.0494 21.4314 16.0494C21.7952 16.0494 22.0912 16.3454 22.0912 16.7093V18.5635C22.0912 18.9274 21.7952 19.2234 21.4314 19.2234C21.0675 19.2234 20.7715 18.9274 20.7715 18.5635V16.7093Z" fill="#DFD399"/>
<path d="M24.4559 14.0616H28.5517C28.8357 14.0616 29.0659 13.8314 29.0659 13.5474C29.0659 13.2634 28.8357 13.0332 28.5517 13.0332H24.4559C24.1719 13.0332 23.9417 13.2634 23.9417 13.5474C23.9417 13.8314 24.1719 14.0616 24.4559 14.0616Z" fill="#DFD399"/>
<path d="M24.4559 16.3634H27.6141C27.898 16.3634 28.1283 16.1332 28.1283 15.8492C28.1283 15.5651 27.898 15.335 27.6141 15.335H24.4559C24.1719 15.335 23.9417 15.5651 23.9417 15.8492C23.9417 16.1332 24.1719 16.3634 24.4559 16.3634Z" fill="#DFD399"/>
<path d="M5.05892 7.49276C5.48233 7.49276 5.82557 7.14952 5.82557 6.72611C5.82557 6.30271 5.48233 5.95947 5.05892 5.95947C4.63552 5.95947 4.29228 6.30271 4.29228 6.72611C4.29228 7.14952 4.63552 7.49276 5.05892 7.49276Z" fill="#DFD399"/>
<path d="M7.38085 7.49276C7.80426 7.49276 8.1475 7.14952 8.1475 6.72611C8.1475 6.30271 7.80426 5.95947 7.38085 5.95947C6.95745 5.95947 6.61421 6.30271 6.61421 6.72611C6.61421 7.14952 6.95745 7.49276 7.38085 7.49276Z" fill="#DFD399"/>
<path d="M9.68913 7.49276C10.1125 7.49276 10.4558 7.14952 10.4558 6.72611C10.4558 6.30271 10.1125 5.95947 9.68913 5.95947C9.26572 5.95947 8.92249 6.30271 8.92249 6.72611C8.92249 7.14952 9.26572 7.49276 9.68913 7.49276Z" fill="#DFD399"/>
</svg>
