<svg width="31" height="31" viewBox="0 0 31 31" fill="none" xmlns="http://www.w3.org/2000/svg">
<g clip-path="url(#clip0_1_823)">
<path d="M22.8074 19.4599L25.4474 16.8199C25.9274 16.3399 25.9274 15.4999 25.4474 15.0199C24.9674 14.5399 24.1274 14.5399 23.6474 15.0199L19.8674 18.7999C19.1474 19.5199 18.7274 20.5399 18.7274 21.6199V25.6399H24.1274V24.3799C24.1274 24.0199 24.2474 23.7199 24.4274 23.4799L28.4474 18.5599C28.7474 18.1399 28.9274 17.6599 28.9274 17.1199V9.91986C28.9274 9.07986 28.2674 8.35986 27.3674 8.35986C26.5274 8.35986 25.8074 9.01986 25.8074 9.91986V15.6799" stroke="#DFD399" stroke-miterlimit="10" stroke-linecap="round" stroke-linejoin="round"/>
<path d="M24.5474 29.4801H18.2474C17.8874 29.4801 17.6474 29.2401 17.6474 28.8801V26.1801C17.6474 25.8201 17.8874 25.5801 18.2474 25.5801H24.5474C24.9074 25.5801 25.1474 25.8201 25.1474 26.1801V28.8801C25.1474 29.1801 24.9074 29.4801 24.5474 29.4801Z" stroke="#DFD399" stroke-miterlimit="10" stroke-linecap="round" stroke-linejoin="round"/>
<path d="M7.2078 19.4599L4.5678 16.8199C4.0878 16.3399 4.0878 15.4999 4.5678 15.0199C5.0478 14.5399 5.8878 14.5399 6.3678 15.0199L10.1478 18.7999C10.8678 19.5199 11.2878 20.5399 11.2878 21.6199V25.6399H5.8878V24.3799C5.8878 24.0199 5.7678 23.7199 5.5878 23.4799L1.5678 18.4999C1.2678 18.0799 1.0878 17.5999 1.0878 17.0599V9.91986C1.0878 9.07986 1.7478 8.35986 2.6478 8.35986C3.4878 8.35986 4.2078 9.01986 4.2078 9.91986V15.6799" stroke="#DFD399" stroke-miterlimit="10" stroke-linecap="round" stroke-linejoin="round"/>
<path d="M5.46807 29.4801H11.7681C12.1281 29.4801 12.3681 29.2401 12.3681 28.8801V26.1801C12.3681 25.8201 12.1281 25.5801 11.7681 25.5801H5.46807C5.10807 25.5801 4.86807 25.8201 4.86807 26.1801V28.8801C4.86807 29.1801 5.10807 29.4801 5.46807 29.4801Z" stroke="#DFD399" stroke-miterlimit="10" stroke-linecap="round" stroke-linejoin="round"/>
<path d="M23.6481 27.5H22.8681" stroke="#DFD399" stroke-miterlimit="10" stroke-linecap="round" stroke-linejoin="round"/>
<path d="M7.08753 27.5H6.30753" stroke="#DFD399" stroke-miterlimit="10" stroke-linecap="round" stroke-linejoin="round"/>
<path d="M15.0078 16.7001C19.2162 16.7001 22.6278 13.3153 22.6278 9.14008C22.6278 4.9648 19.2162 1.58008 15.0078 1.58008C10.7994 1.58008 7.38779 4.9648 7.38779 9.14008C7.38779 13.3153 10.7994 16.7001 15.0078 16.7001Z" stroke="#DFD399" stroke-miterlimit="10" stroke-linecap="round" stroke-linejoin="round"/>
<path d="M15.0078 14.4199C17.9238 14.4199 20.2878 12.0559 20.2878 9.13986C20.2878 6.2238 17.9238 3.85986 15.0078 3.85986C12.0917 3.85986 9.72778 6.2238 9.72778 9.13986C9.72778 12.0559 12.0917 14.4199 15.0078 14.4199Z" stroke="#DFD399" stroke-miterlimit="10" stroke-linecap="round" stroke-linejoin="round"/>
<path d="M16.5082 10.8202C16.3882 11.0002 16.2082 11.1202 15.9682 11.2402C15.7282 11.3602 15.4882 11.4202 15.1882 11.4202V11.9002C15.1882 11.9602 15.1882 12.0202 15.1282 12.0202C15.0682 12.0802 15.0682 12.0802 15.0082 12.0802C14.9482 12.0802 14.8882 12.0802 14.8882 12.0202C14.8282 11.9602 14.8282 11.9602 14.8282 11.9002V11.4202C14.3482 11.4202 13.9282 11.3002 13.5082 11.1202C13.4482 11.1202 13.3882 11.0602 13.3882 11.0002C13.3282 10.9402 13.3282 10.8802 13.3282 10.8202C13.3282 10.7602 13.3282 10.7002 13.3882 10.6402C13.4482 10.5802 13.5082 10.5802 13.5682 10.5802H13.6882C14.0482 10.7602 14.4082 10.8202 14.7682 10.8202V9.3802C14.4682 9.3202 14.2282 9.20019 14.0482 9.14019C13.8682 9.08019 13.6882 8.9002 13.5682 8.7802C13.4482 8.6002 13.3882 8.4202 13.3882 8.1802C13.3882 7.9402 13.4482 7.7602 13.5682 7.5802C13.6882 7.4002 13.8682 7.2202 14.0482 7.1002C14.2882 6.9802 14.5282 6.9202 14.8282 6.8602V6.3802C14.8282 6.3202 14.8282 6.2602 14.8882 6.2602C14.9482 6.2002 14.9482 6.2002 15.0082 6.2002C15.0682 6.2002 15.1282 6.2002 15.1282 6.2602C15.1882 6.3202 15.1882 6.3202 15.1882 6.3802V6.8002C15.6082 6.8002 15.9682 6.8602 16.3282 7.0402C16.4482 7.1002 16.5082 7.1602 16.5082 7.2802C16.5082 7.3402 16.5082 7.4002 16.4482 7.4602C16.3882 7.5202 16.3282 7.5202 16.2682 7.5202C16.2682 7.5202 16.2082 7.5202 16.1482 7.5202C15.8482 7.4002 15.5482 7.3402 15.1882 7.3402V8.9002C15.4882 8.9602 15.7282 9.08019 15.9682 9.14019C16.1482 9.20019 16.3282 9.3802 16.4482 9.5002C16.5682 9.6802 16.6282 9.9202 16.6282 10.1602C16.6882 10.4002 16.6282 10.6402 16.5082 10.8202ZM14.1682 8.54019C14.2882 8.66019 14.5282 8.7202 14.7682 8.7802V7.4002C14.5282 7.4602 14.2882 7.5202 14.1682 7.6402C14.0482 7.7602 13.9282 7.9402 13.9282 8.1202C13.9882 8.30019 14.0482 8.42019 14.1682 8.54019ZM16.0882 10.1602C16.0882 9.9802 16.0282 9.8602 15.8482 9.8002C15.6682 9.6802 15.4882 9.6202 15.1882 9.5602V10.9402C15.7882 10.8202 16.0882 10.5802 16.0882 10.1602Z" fill="#DFD399"/>
</g>
<defs>
<clipPath id="clip0_1_823">
<rect width="30" height="30" fill="white" transform="translate(0.0078125 0.5)"/>
</clipPath>
</defs>
</svg>
