<svg width="30" height="31" viewBox="0 0 30 31" fill="none" xmlns="http://www.w3.org/2000/svg">
<mask id="mask0_1_801" style="mask-type:luminance" maskUnits="userSpaceOnUse" x="0" y="0" width="30" height="30">
<path d="M0 0H30V30H0V0Z" fill="white"/>
</mask>
<g mask="url(#mask0_1_801)">
<path d="M19.6896 25.7805C18.9687 26.131 18.2081 26.4117 17.4175 26.6143V27.8966C17.4175 28.5078 16.9158 29.0078 16.3046 29.0078H12.5891C11.9762 29.0078 11.4763 28.5078 11.4763 27.8966V26.6143C10.3585 26.3286 9.30381 25.8868 8.33549 25.3121L7.42863 26.219C6.9951 26.6525 6.28752 26.6525 5.85568 26.219L3.2281 23.5913C2.79463 23.1595 2.79463 22.4503 3.2281 22.0184L4.13502 21.1115C3.56033 20.1432 3.11853 19.0885 2.83283 17.9706H1.55056C0.939372 17.9706 0.439392 17.469 0.439392 16.8578V13.1421C0.439392 12.5293 0.939372 12.0293 1.55056 12.0293H2.83283C3.11853 10.9115 3.56033 9.85674 4.13502 8.88842L3.2281 7.9815C2.79463 7.54803 2.79463 6.84039 3.2281 6.40855L5.85568 3.78092C6.28752 3.34738 6.9951 3.34738 7.42863 3.78092L8.33549 4.68783C9.30381 4.11309 10.3585 3.67129 11.4763 3.38559V2.10332C11.4763 1.49207 11.9762 0.992148 12.5891 0.992148H16.3046C16.9158 0.992148 17.4175 1.49207 17.4175 2.10332V3.38559C18.5353 3.67129 19.5899 4.11309 20.5583 4.68783L21.4651 3.78092C21.897 3.34738 22.6062 3.34738 23.038 3.78092L25.6656 6.40855C26.0991 6.84039 26.0991 7.54803 25.6656 7.9815L24.7588 8.88842C25.3334 9.85674 25.7753 10.9115 26.0609 12.0293H27.3432C27.9544 12.0293 28.4543 12.5293 28.4543 13.1421V16.8578C28.4543 17.3528 28.1271 17.7746 27.6787 17.9175" stroke="#DFD399" stroke-miterlimit="10" stroke-linecap="round" stroke-linejoin="round"/>
<path d="M8.95833 8.64092C7.1745 10.1806 6.04669 12.4578 6.04669 14.9992C6.04669 19.6399 9.80706 23.4004 14.446 23.4004C15.8512 23.4004 17.1733 23.0565 18.3359 22.447M22.6876 16.6369C22.7922 16.107 22.847 15.5605 22.847 14.9992C22.847 10.3601 19.0867 6.59957 14.446 6.59957C13.0209 6.59957 11.679 6.95506 10.503 7.58125" stroke="#DFD399" stroke-miterlimit="10" stroke-linecap="round" stroke-linejoin="round"/>
<path d="M12.7053 23.2192V17.8709C10.9514 17.2215 9.69403 15.5289 9.69403 13.5574C9.69403 11.9827 10.4947 10.5858 11.7105 9.75703C12.9861 8.88498 12.7386 10.2619 12.7386 10.4929V13.255C12.7386 14.2217 13.4959 15.019 14.446 15.0838C15.396 15.019 16.1534 14.2217 16.1534 13.255V10.4929C16.1534 10.2619 15.9076 8.88498 17.1832 9.75703C18.399 10.5858 19.1996 11.9827 19.1996 13.5574C19.1996 15.5289 17.9422 17.2215 16.1883 17.8709V23.2192" stroke="#DFD399" stroke-miterlimit="10" stroke-linecap="round" stroke-linejoin="round"/>
<path d="M26.5857 27.0711C25.7984 27.4913 24.8982 27.7305 23.9431 27.7305C20.8405 27.7305 18.3259 25.2157 18.3259 22.113C18.3259 19.0104 20.8405 16.4956 23.9431 16.4956C27.0458 16.4956 29.5605 19.0104 29.5605 22.113C29.5605 23.5465 29.0223 24.8536 28.1387 25.8469" stroke="#DFD399" stroke-miterlimit="10" stroke-linecap="round" stroke-linejoin="round"/>
<path d="M23.3042 22.0534L25.1179 19.8909C25.495 19.4407 26.1693 19.3809 26.6211 19.758C27.0712 20.135 27.131 20.8094 26.7523 21.2611L24.2509 24.2459C24.0616 24.4735 23.8175 24.5997 23.5235 24.6246C23.2295 24.6495 22.9687 24.5665 22.7428 24.3754L21.336 23.1812C20.8875 22.8009 20.8328 22.1265 21.2114 21.678C21.5918 21.2295 22.2678 21.1748 22.7146 21.5534L23.3042 22.0534Z" stroke="#DFD399" stroke-miterlimit="10" stroke-linecap="round" stroke-linejoin="round"/>
</g>
</svg>
